<svg width="560" height="300" viewBox="0 0 560 300" fill="none" xmlns="http://www.w3.org/2000/svg">
<path d="M376.258 299.975C251.168 299.975 126.216 299.974 1.26332 300C0.2325 300 -0.000271761 299.778 2.37987e-07 298.793C0.0273846 199.598 0.0273794 100.402 5.68912e-05 1.20653C-0.000214007 0.2223 0.231427 -0.000140716 1.263 6.67666e-08C187.087 0.0253449 372.912 0.0253396 558.736 0.000100152C559.767 -3.98429e-05 560 0.220387 560 1.20598C559.973 100.402 559.973 199.597 560 298.793C560 299.777 559.77 300 558.737 300C497.957 299.972 437.176 299.975 376.258 299.975Z" fill="#232323"/>
<path d="M115.001 256.501C138.322 256.228 161.155 257.142 183.968 255.998C211.352 254.626 237.694 229.158 238.992 201.671C240.682 165.893 240.698 130.053 238.977 94.275C237.664 66.9682 211.103 41.0788 183.82 40.0578C146.516 38.6617 109.183 39.7673 71.8642 39.5135C58.3676 39.4218 44.8673 39.6525 31.3738 39.431C21.8447 39.2746 16.4097 32.5155 19.1196 24.5888C20.5749 20.3319 23.6295 17.7045 28.1825 17.0457C29.1685 16.9031 30.1753 16.8464 31.1724 16.847C81.3279 16.876 131.488 16.5051 181.637 17.1171C209.09 17.4521 230.579 30.4331 246.877 52.2669C258.169 67.3946 262.989 84.5758 262.997 103.266C263.011 133.259 262.766 163.255 263.057 193.246C263.475 236.245 231.673 272.363 190.317 278.748C185.408 279.506 180.346 279.463 175.354 279.468C128.031 279.518 80.7074 279.51 33.3841 279.489C24.2177 279.485 20.0429 276.701 18.7572 269.945C17.6518 264.135 21.7615 257.953 27.552 256.976C29.8354 256.591 32.193 256.522 34.517 256.52C61.1782 256.49 87.8394 256.501 115.001 256.501Z" fill="#F5CA45"/>
<path d="M414 256.504C451.474 256.504 488.448 256.512 525.422 256.495C530.016 256.492 534.321 256.881 537.611 260.814C540.497 264.262 541.106 268.171 539.657 272.024C538.216 275.857 535.27 278.685 530.789 279.112C528.804 279.301 526.808 279.48 524.818 279.48C453.701 279.499 382.585 279.502 311.469 279.476C308.01 279.475 304.5 279.707 301.356 277.594C297.154 274.769 295.253 270.473 296.451 265.538C297.62 260.721 300.685 257.722 305.608 256.908C307.727 256.557 309.915 256.521 312.072 256.52C345.882 256.497 379.691 256.504 414 256.504Z" fill="#F6CB45"/>
<path d="M407 16.8348C447.155 16.835 486.811 16.8192 526.466 16.8476C535.542 16.8541 540.654 21.3525 540.297 28.8149C540.065 33.6497 536.363 38.1055 531.571 38.9763C529.295 39.39 526.934 39.4751 524.612 39.4759C453.632 39.5004 382.652 39.5022 311.673 39.4771C308.212 39.4759 304.69 39.7441 301.523 37.7028C297.223 34.9308 295.36 30.728 296.407 25.7295C297.424 20.8765 301.025 17.565 306.038 17.0229C307.853 16.8266 309.697 16.8425 311.527 16.8419C343.185 16.8321 374.842 16.8348 407 16.8348Z" fill="#F6CB45"/>
<path d="M300.907 157.271C296.315 152.931 294.847 148.192 296.9 143.666C299.032 138.966 302.971 136.832 308.124 136.839C321.615 136.855 335.107 136.836 348.598 136.835C407.394 136.834 466.19 136.833 524.986 136.841C527.809 136.841 530.686 136.59 533.376 137.707C538.269 139.739 540.8 144.311 540.148 149.755C539.561 154.652 535.862 158.364 530.636 159.115C528.669 159.398 526.658 159.481 524.667 159.481C453.545 159.499 382.424 159.502 311.302 159.476C307.842 159.475 304.262 159.784 300.907 157.271Z" fill="#F6CB45"/>
</svg>
